<svg id="Layer_1" data-name="Layer 1" xmlns="http://www.w3.org/2000/svg" viewBox="0 0 400 400"><defs><style>.cls-1,.cls-5{fill:#f16c9d;}.cls-1{opacity:0.5;}.cls-2{fill:#4c535d;}.cls-3{fill:#fff;}.cls-4{fill:#675ca8;}.cls-6{fill:#4cbfa4;}.cls-7{fill:#fef489;}.cls-8{fill:#fff48a;}</style></defs><circle class="cls-1" cx="200" cy="200" r="200"/><path class="cls-2" d="M286.69,108.64l0,.23-1.32,6.64-2.1,10.62-1.18,5.93-16.52,83.31-.32,1.62a3.09,3.09,0,0,1-3,2.49,3.05,3.05,0,0,1-.6-.06,3.12,3.12,0,0,1-1.63-.89,3.07,3.07,0,0,1-.8-2.74l1.12-5.66,18.94-95.5,1.42-7.19a1.33,1.33,0,0,1,.05-.19c0-.11.07-.23.11-.34h0a3.09,3.09,0,0,1,3.46-1.89,3.36,3.36,0,0,1,.48.14A3.08,3.08,0,0,1,286.69,108.64Z"/><path class="cls-2" d="M349.07,125.93h0v0l-31.5,159.42a2.63,2.63,0,0,1-.14.5,3.08,3.08,0,0,1-2.88,2,2.92,2.92,0,0,1-.51,0l-.09,0a3.08,3.08,0,0,1-2.43-3.62l2-10.16,1.18-6,24.69-124.93,1.19-6,2.43-12.3a3.07,3.07,0,0,1,3.59-2.43h0A3.09,3.09,0,0,1,349.07,125.93Z"/><path class="cls-3" d="M150.23,117.85A32.39,32.39,0,0,1,95.5,141.29l-.13-.14-.76-.75a32.38,32.38,0,0,1,46.26-45.32l.15.15A32.26,32.26,0,0,1,150.23,117.85Z"/><path class="cls-2" d="M152.7,111.28a35.22,35.22,0,0,0-9.48-18.21l-.08-.08s0,0,0,0l0,0a35.17,35.17,0,0,0-25.22-10.53A35.52,35.52,0,0,0,83,111.24a35.35,35.35,0,0,0,9.4,31.31l.78.79.2.18a35.46,35.46,0,0,0,59.93-25.67A34.92,34.92,0,0,0,152.7,111.28Zm-34.85,35.87a29.16,29.16,0,0,1-20.2-8.08l-.84-.83a29.19,29.19,0,0,1-8.26-20.39,29.28,29.28,0,0,1,29.3-29.3,29,29,0,0,1,20.84,8.72l.2.19a29.31,29.31,0,0,1-21,49.69Z"/><circle class="cls-3" cx="85.47" cy="282.04" r="32.38"/><path class="cls-2" d="M118.06,268.07A35.48,35.48,0,0,0,50.93,274c-.18.77-.34,1.54-.46,2.33v.05a.58.58,0,0,0,0,.19A34.37,34.37,0,0,0,50,282a35.46,35.46,0,0,0,70.51,5.43v0h0a35.56,35.56,0,0,0,.41-5.4A35.18,35.18,0,0,0,118.06,268.07ZM85.47,311.34A29.33,29.33,0,0,1,56.17,282a28.76,28.76,0,0,1,.37-4.67c.11-.68.24-1.36.4-2a29.3,29.3,0,1,1,28.53,36Z"/><path class="cls-3" d="M314.53,282v.11A32.38,32.38,0,0,1,259,304.81l-.17-.18a32.38,32.38,0,0,1,46-45.52,3,3,0,0,1,.25.25l.13.13A32.23,32.23,0,0,1,314.53,282Z"/><path class="cls-2" d="M314.7,268a35.42,35.42,0,0,0-7.23-10.73l-.12-.11c-.05-.05-.1-.11-.16-.16s0,0-.05-.05l-.08-.09a35.23,35.23,0,0,0-18.34-9.61,35.53,35.53,0,0,0-41.43,41.43,35.27,35.27,0,0,0,9.34,18l.19.2.09.08,0,.05a35.14,35.14,0,0,0,25.19,10.51,35.5,35.5,0,0,0,35.27-31.7,36,36,0,0,0,.2-3.76V282A35.38,35.38,0,0,0,314.7,268Zm-3.25,14.11a29.3,29.3,0,0,1-50.14,20.59l-.1-.11-.16-.16-.05-.05a29.3,29.3,0,0,1,41.65-41.2l.07.07.06.06c.05,0,.1.1.15.15l.15.15a29.16,29.16,0,0,1,8.37,20.4Z"/><path class="cls-3" d="M346.92,117.85V118a32.39,32.39,0,0,1-64.77,0v-.11a32.39,32.39,0,0,1,64.77,0Z"/><path class="cls-2" d="M314.53,82.39A35.52,35.52,0,0,0,280.8,106.9h0c0,.11-.08.23-.11.34a34,34,0,0,0-1.47,7.38c-.1,1.06-.15,2.13-.15,3.22V118a35.47,35.47,0,0,0,70,8h0a35.47,35.47,0,0,0,.93-8v-.11A35.5,35.5,0,0,0,314.53,82.39ZM285.24,118v-.11q0-1.18.09-2.34a28.64,28.64,0,0,1,1.32-6.64,29.29,29.29,0,0,1,57.18,9v.1a29.3,29.3,0,0,1-58.59,0Z"/><circle class="cls-4" cx="117.74" cy="117.74" r="23.13"/><circle class="cls-5" cx="85.47" cy="282.15" r="23.13"/><circle class="cls-6" cx="314.53" cy="117.96" r="23.13"/><circle class="cls-7" cx="282.15" cy="282.15" r="23.13"/><path class="cls-2" d="M141,98.31a3.07,3.07,0,0,1-2.18-.9l-.15-.15a3.08,3.08,0,0,1,4.36-4.36l.15.15A3.08,3.08,0,0,1,141,98.31Z"/><path class="cls-2" d="M259,307.89a3.07,3.07,0,0,1-2.18-.9l-.17-.18a3.08,3.08,0,0,1,4.36-4.36l.18.18a3.09,3.09,0,0,1-2.19,5.26Z"/><path class="cls-2" d="M314.53,285.24a3.09,3.09,0,0,1-3.08-3.09V282a3.09,3.09,0,0,1,6.17,0v.11A3.09,3.09,0,0,1,314.53,285.24Z"/><path class="cls-2" d="M346.92,121a3.08,3.08,0,0,1-3.09-3.08v-.11a3.09,3.09,0,1,1,6.17,0V118A3.08,3.08,0,0,1,346.92,121Z"/><path class="cls-2" d="M282.15,121a3.08,3.08,0,0,1-3.08-3.08v-.11a3.09,3.09,0,1,1,6.17,0V118A3.08,3.08,0,0,1,282.15,121Z"/><path class="cls-2" d="M89,112.5l-2.61,13.23-1.2,6.08-24.63,125-1.19,6-2.47,12.53-.4,2,0,.18a3.09,3.09,0,0,1-3,2.49,1.83,1.83,0,0,1-.33,0,1.09,1.09,0,0,1-.26,0,3.07,3.07,0,0,1-2.46-3.43.58.58,0,0,1,0-.19v-.05l.46-2.33L83,111.31a.15.15,0,0,1,0-.07,3.07,3.07,0,0,1,3.61-2.36l.11,0A3.09,3.09,0,0,1,89,112.5Z"/><path class="cls-4" d="M142.72,143.1,134.84,183s0,0,0,.05l-16.77,85A35.44,35.44,0,0,0,60.6,256.78l24.63-125a35.34,35.34,0,0,0,7.17,10.74l.78.79.2.18a35.41,35.41,0,0,0,49.34-.42Z"/><path class="cls-2" d="M152.51,125.35a.3.3,0,0,1,0,.1l-11.28,57.18-1.44,7.29-19.25,97.52h0v0a3.06,3.06,0,0,1-3.61,2.41h0a3.08,3.08,0,0,1-2.42-3.62l2.39-12.14,1.2-6,16.77-85s0,0,0-.05l7.88-39.94,1.2-6,2.52-12.79a3.08,3.08,0,0,1,3.55-2.44h.08A3.09,3.09,0,0,1,152.51,125.35Z"/><path class="cls-6" d="M339.39,143.11,314.7,268a35.42,35.42,0,0,0-7.23-10.73l-.12-.11c-.05-.05-.1-.11-.16-.16s0,0-.05-.05l-.05-.06,0,0-41.53-41.53,16.52-83.31a35.41,35.41,0,0,0,57.34,11.05Z"/><path class="cls-2" d="M307.09,261.29l-.09.09a3.11,3.11,0,0,1-4.22,0l-.06-.06L260,218.53,152.7,111.28,138.79,97.37a3.1,3.1,0,0,1,0-4.24.3.3,0,0,1,.08-.08,3.08,3.08,0,0,1,4.25-.11s0,0,0,0l.06.06,0,0L260.28,210.13l5.25,5.24,41.53,41.53,0,0,.05.06s0,0,.05.05A3.09,3.09,0,0,1,307.09,261.29Z"/><path class="cls-8" d="M288.72,247.29a35.53,35.53,0,0,0-41.43,41.43L141.21,182.63l11.28-57.18a.3.3,0,0,0,0-.1,35.62,35.62,0,0,0,.19-14.07L260,218.53Z"/><path class="cls-2" d="M261.28,306.91l-.07.08a3.11,3.11,0,0,1-2.19.9,3.08,3.08,0,0,1-2.06-.79l0-.05-.07-.06L135.68,185.83a3.08,3.08,0,0,1-.85-2.74s0,0,0-.05a3.08,3.08,0,0,1,5.2-1.57l1.17,1.16L247.29,288.72,261,302.42l.05.05.16.16h0l.1.11A3.09,3.09,0,0,1,261.28,306.91Z"/></svg>