<?xml version="1.0" encoding="utf-8"?>
<!-- Generator: Adobe Illustrator 15.0.0, SVG Export Plug-In . SVG Version: 6.00 Build 0)  -->
<!DOCTYPE svg PUBLIC "-//W3C//DTD SVG 1.1//EN" "http://www.w3.org/Graphics/SVG/1.1/DTD/svg11.dtd">
<svg version="1.1" id="Layer_1" xmlns="http://www.w3.org/2000/svg" xmlns:xlink="http://www.w3.org/1999/xlink" x="0px" y="0px"
	 width="457px" height="76px" viewBox="0 0 457 76" enable-background="new 0 0 457 76" xml:space="preserve">
<path fill="#173862" d="M433.668,8.53H287.339v2.109v0v31.965c1.577,21.771,17.669,23.349,17.669,23.349h146.328v-1.894v-0.216
	V31.878C449.759,10.108,433.668,8.53,433.668,8.53z"/>
<g>
	<path fill="#FFFFFF" d="M346.557,35.328c0,2.137-0.396,4.029-1.189,5.675c-0.793,1.646-1.92,2.913-3.379,3.801
		c-1.461,0.888-3.124,1.333-4.99,1.333c-1.867,0-3.522-0.429-4.968-1.287c-1.444-0.858-2.571-2.085-3.38-3.681
		c-0.807-1.596-1.231-3.427-1.271-5.494V34.44c0-2.147,0.395-4.042,1.182-5.683c0.787-1.641,1.916-2.907,3.387-3.801
		c1.471-0.893,3.144-1.34,5.021-1.34c1.856,0,3.513,0.442,4.968,1.325c1.455,0.883,2.586,2.14,3.395,3.771
		c0.807,1.631,1.217,3.5,1.227,5.607V35.328z M341.183,34.41c0-2.177-0.364-3.831-1.091-4.96c-0.729-1.129-1.77-1.693-3.124-1.693
		c-2.649,0-4.05,1.987-4.2,5.961l-0.015,1.611c0,2.147,0.356,3.798,1.069,4.952c0.712,1.154,1.771,1.731,3.176,1.731
		c1.334,0,2.363-0.567,3.086-1.701c0.723-1.134,1.088-2.765,1.099-4.892V34.41z"/>
	<path fill="#FFFFFF" d="M364.168,37.827c0,2.67-0.552,4.722-1.656,6.157c-1.104,1.435-2.658,2.153-4.666,2.153
		c-1.656,0-2.99-0.657-4.004-1.972l-0.211,1.671h-4.546V22.714h5.073v8.144c0.943-1.074,2.162-1.611,3.658-1.611
		c2.026,0,3.592,0.728,4.695,2.183c1.104,1.456,1.656,3.502,1.656,6.142V37.827z M359.08,37.503c0-1.563-0.208-2.677-0.625-3.344
		c-0.416-0.666-1.056-0.999-1.919-0.999c-1.144,0-1.937,0.436-2.378,1.307v6.462c0.432,0.862,1.234,1.292,2.408,1.292
		c1.194,0,1.951-0.581,2.273-1.743C359,39.908,359.08,38.916,359.08,37.503z"/>
	<path fill="#FFFFFF" d="M371.86,29.548v16.844c-0.011,1.927-0.563,3.412-1.656,4.456c-1.094,1.043-2.619,1.565-4.575,1.565
		c-0.844,0-1.642-0.085-2.395-0.256v-3.838c0.582,0.09,1.059,0.135,1.431,0.135c1.405,0,2.107-0.698,2.107-2.092V29.548H371.86z
		 M366.396,25.333c0-0.727,0.26-1.323,0.782-1.787c0.521-0.464,1.199-0.697,2.032-0.697c0.832,0,1.51,0.232,2.032,0.697
		c0.521,0.464,0.782,1.06,0.782,1.787s-0.261,1.323-0.782,1.787c-0.522,0.464-1.2,0.697-2.032,0.697
		c-0.833,0-1.511-0.232-2.032-0.697C366.656,26.656,366.396,26.06,366.396,25.333z"/>
	<path fill="#FFFFFF" d="M382.607,46.136c-2.498,0-4.521-0.745-6.066-2.235c-1.545-1.49-2.317-3.43-2.317-5.818v-0.421
		c0-1.666,0.309-3.136,0.925-4.41c0.617-1.274,1.519-2.26,2.703-2.958c1.184-0.697,2.589-1.046,4.215-1.046
		c2.287,0,4.094,0.71,5.418,2.13c1.325,1.42,1.988,3.4,1.988,5.938v1.972h-10.086c0.181,0.913,0.576,1.631,1.189,2.152
		c0.611,0.522,1.404,0.783,2.378,0.783c1.605,0,2.86-0.562,3.763-1.686l2.318,2.74c-0.632,0.873-1.527,1.568-2.687,2.085
		S383.942,46.136,382.607,46.136z M382.035,33.161c-1.484,0-2.367,0.983-2.648,2.95h5.117v-0.392
		c0.021-0.813-0.186-1.442-0.617-1.889C383.455,33.384,382.838,33.161,382.035,33.161z"/>
	<path fill="#FFFFFF" d="M398.398,42.222c0.713,0,1.265-0.193,1.656-0.58c0.391-0.386,0.582-0.926,0.572-1.618h4.756
		c0,1.787-0.64,3.251-1.919,4.396s-2.928,1.716-4.944,1.716c-2.369,0-4.236-0.743-5.6-2.228c-1.365-1.485-2.048-3.542-2.048-6.172
		v-0.21c0-1.646,0.304-3.099,0.911-4.358c0.606-1.259,1.482-2.228,2.627-2.905c1.144-0.677,2.498-1.016,4.063-1.016
		c2.118,0,3.798,0.587,5.043,1.761c1.244,1.174,1.866,2.765,1.866,4.772h-4.756c0-0.843-0.207-1.49-0.617-1.942
		c-0.412-0.452-0.964-0.677-1.656-0.677c-1.314,0-2.082,0.838-2.303,2.514c-0.07,0.532-0.105,1.264-0.105,2.198
		c0,1.636,0.195,2.77,0.586,3.402C396.924,41.906,397.545,42.222,398.398,42.222z"/>
	<path fill="#FFFFFF" d="M413.436,25.499v4.049h2.68v3.522h-2.68v7.451c0,0.612,0.111,1.039,0.332,1.279s0.656,0.361,1.31,0.361
		c0.501,0,0.923-0.03,1.265-0.09V45.7c-0.914,0.291-1.867,0.437-2.86,0.437c-1.746,0-3.036-0.412-3.868-1.234
		c-0.834-0.823-1.25-2.072-1.25-3.749V33.07h-2.077v-3.522h2.077v-4.049H413.436z"/>
</g>
<path fill="#F04F24" d="M284.859,34.634l-17.671-7.572c-0.962-0.412-2.073,0.033-2.485,0.995c-0.412,0.961,0.033,2.074,0.994,2.486
	l9.191,3.939H157.9c-1.045,0-1.893,0.848-1.893,1.893c0,1.046,0.848,1.894,1.893,1.894h117.641l-9.896,4.594
	c-0.948,0.441-1.36,1.566-0.919,2.515c0.32,0.69,1.004,1.097,1.718,1.097c0.267,0,0.538-0.057,0.796-0.177l17.67-8.204
	c0.678-0.315,1.107-0.999,1.096-1.746C285.994,35.599,285.545,34.928,284.859,34.634z"/>
<g>
	<g>
		<path fill="#F04F24" d="M188.546,18.324c0,1.56-0.352,2.806-1.054,3.738c-0.703,0.932-1.651,1.397-2.847,1.397
			c-0.922,0-1.681-0.337-2.275-1.012v4.69h-3.13V13.225h2.926l0.093,0.929c0.601-0.743,1.39-1.114,2.368-1.114
			c1.238,0,2.201,0.457,2.889,1.37c0.687,0.914,1.031,2.169,1.031,3.766V18.324z M185.416,18.128c0-1.783-0.52-2.675-1.56-2.675
			c-0.743,0-1.239,0.267-1.486,0.799v3.957c0.272,0.557,0.774,0.836,1.505,0.836c0.997,0,1.51-0.86,1.542-2.582V18.128z"/>
		<path fill="#F04F24" d="M196.004,16.058l-1.031-0.075c-0.984,0-1.616,0.31-1.895,0.929v6.362h-3.13V13.225h2.935l0.102,1.291
			c0.526-0.984,1.26-1.477,2.201-1.477c0.334,0,0.625,0.037,0.873,0.111L196.004,16.058z"/>
		<path fill="#F04F24" d="M201.818,23.459c-1.542,0-2.79-0.459-3.743-1.379c-0.954-0.919-1.431-2.116-1.431-3.59v-0.26
			c0-1.028,0.19-1.935,0.571-2.722c0.381-0.786,0.937-1.395,1.667-1.825c0.731-0.431,1.598-0.646,2.601-0.646
			c1.412,0,2.526,0.438,3.344,1.314c0.817,0.876,1.226,2.098,1.226,3.664v1.217h-6.223c0.111,0.563,0.356,1.006,0.733,1.328
			c0.378,0.322,0.867,0.483,1.468,0.483c0.99,0,1.765-0.347,2.322-1.04l1.43,1.69c-0.39,0.539-0.943,0.968-1.658,1.287
			C203.411,23.3,202.641,23.459,201.818,23.459z M201.465,15.454c-0.917,0-1.461,0.607-1.634,1.82h3.158v-0.241
			c0.012-0.501-0.115-0.89-0.381-1.166C202.341,15.592,201.96,15.454,201.465,15.454z"/>
		<path fill="#F04F24" d="M206.917,18.175c0-1.591,0.344-2.845,1.031-3.761c0.688-0.917,1.647-1.375,2.879-1.375
			c0.897,0,1.653,0.353,2.266,1.059V9.008h3.139v14.266h-2.814l-0.158-1.077c-0.644,0.842-1.461,1.263-2.452,1.263
			c-1.195,0-2.143-0.458-2.842-1.375C207.267,21.169,206.917,19.865,206.917,18.175z M210.047,18.37c0,1.783,0.52,2.675,1.561,2.675
			c0.693,0,1.188-0.291,1.486-0.873v-3.827c-0.285-0.594-0.774-0.892-1.467-0.892c-0.966,0-1.489,0.78-1.57,2.341L210.047,18.37z"/>
		<path fill="#F04F24" d="M217.988,10.624c0-0.448,0.161-0.816,0.483-1.103s0.74-0.43,1.254-0.43c0.514,0,0.932,0.143,1.254,0.43
			c0.322,0.287,0.483,0.654,0.483,1.103c0,0.449-0.161,0.816-0.483,1.103c-0.322,0.287-0.74,0.43-1.254,0.43
			c-0.514,0-0.932-0.144-1.254-0.43C218.149,11.44,217.988,11.073,217.988,10.624z M221.313,23.274h-3.14V13.225h3.14V23.274z"/>
		<path fill="#F04F24" d="M227.489,21.045c0.439,0,0.78-0.119,1.021-0.357s0.359-0.571,0.353-0.999h2.935
			c0,1.102-0.395,2.006-1.184,2.712s-1.806,1.059-3.051,1.059c-1.461,0-2.613-0.458-3.455-1.375
			c-0.842-0.916-1.263-2.186-1.263-3.808v-0.13c0-1.015,0.187-1.912,0.562-2.688c0.375-0.777,0.915-1.375,1.621-1.792
			s1.542-0.627,2.508-0.627c1.306,0,2.343,0.362,3.111,1.086c0.768,0.725,1.151,1.706,1.151,2.944h-2.935
			c0-0.52-0.127-0.919-0.381-1.198c-0.254-0.278-0.594-0.418-1.021-0.418c-0.812,0-1.285,0.517-1.421,1.551
			c-0.043,0.328-0.065,0.78-0.065,1.356c0,1.009,0.121,1.709,0.362,2.099C226.579,20.85,226.963,21.045,227.489,21.045z"/>
		<path fill="#F04F24" d="M238.783,23.274c-0.111-0.204-0.211-0.504-0.297-0.901c-0.576,0.725-1.381,1.086-2.415,1.086
			c-0.947,0-1.752-0.286-2.415-0.859s-0.994-1.292-0.994-2.159c0-1.09,0.402-1.914,1.208-2.471c0.805-0.557,1.975-0.836,3.511-0.836
			h0.966v-0.532c0-0.927-0.399-1.39-1.198-1.39c-0.743,0-1.114,0.367-1.114,1.101h-3.13c0-0.971,0.414-1.759,1.24-2.365
			s1.881-0.909,3.163-0.909c1.281,0,2.294,0.313,3.037,0.938c0.742,0.625,1.123,1.483,1.143,2.573v4.449
			c0.012,0.922,0.154,1.628,0.427,2.118v0.158H238.783z M236.823,21.23c0.39,0,0.714-0.083,0.971-0.25
			c0.257-0.167,0.441-0.356,0.553-0.567v-1.606h-0.91c-1.09,0-1.635,0.489-1.635,1.467c0,0.285,0.096,0.516,0.288,0.692
			C236.282,21.143,236.526,21.23,236.823,21.23z"/>
		<path fill="#F04F24" d="M246.863,10.726v2.499h1.652v2.173h-1.652v4.598c0,0.377,0.068,0.641,0.204,0.789
			c0.136,0.149,0.405,0.223,0.808,0.223c0.311,0,0.57-0.019,0.78-0.056v2.238c-0.563,0.179-1.151,0.269-1.765,0.269
			c-1.077,0-1.873-0.253-2.387-0.761s-0.771-1.279-0.771-2.313v-4.987h-1.281v-2.173h1.281v-2.499H246.863z"/>
		<path fill="#F04F24" d="M254.609,23.459c-1.542,0-2.79-0.459-3.743-1.379c-0.954-0.919-1.431-2.116-1.431-3.59v-0.26
			c0-1.028,0.19-1.935,0.571-2.722c0.381-0.786,0.937-1.395,1.667-1.825c0.73-0.431,1.598-0.646,2.601-0.646
			c1.411,0,2.526,0.438,3.344,1.314c0.817,0.876,1.226,2.098,1.226,3.664v1.217h-6.223c0.111,0.563,0.356,1.006,0.734,1.328
			c0.377,0.322,0.866,0.483,1.467,0.483c0.99,0,1.766-0.347,2.322-1.04l1.43,1.69c-0.39,0.539-0.942,0.968-1.657,1.287
			C256.201,23.3,255.432,23.459,254.609,23.459z M254.256,15.454c-0.916,0-1.461,0.607-1.635,1.82h3.158v-0.241
			c0.012-0.501-0.115-0.89-0.381-1.166C255.132,15.592,254.752,15.454,254.256,15.454z"/>
	</g>
</g>
<g>
	<g>
		<path fill="#F04F24" d="M179.454,53.776c0-1.511,0.201-2.917,0.604-4.217c0.402-1.3,0.958-2.402,1.667-3.307
			c0.709-0.904,1.497-1.535,2.364-1.895l0.594,1.542c-0.867,0.638-1.537,1.633-2.011,2.986s-0.713,2.939-0.72,4.76v0.409
			c0,1.864,0.237,3.48,0.71,4.848c0.474,1.369,1.147,2.372,2.02,3.009l-0.594,1.542c-0.854-0.347-1.643-0.979-2.364-1.899
			s-1.277-2.017-1.667-3.292s-0.591-2.632-0.604-4.068V53.776z"/>
		<path fill="#F04F24" d="M185.537,54.156c0-1.003,0.195-1.896,0.585-2.679c0.39-0.783,0.951-1.385,1.681-1.807
			c0.73-0.421,1.588-0.631,2.573-0.631c1.505,0,2.69,0.466,3.557,1.397c0.867,0.932,1.3,2.2,1.3,3.804v0.111
			c0,1.566-0.435,2.81-1.305,3.729c-0.87,0.919-2.048,1.379-3.534,1.379c-1.43,0-2.579-0.429-3.446-1.286
			c-0.867-0.857-1.334-2.02-1.402-3.487L185.537,54.156z M188.667,54.352c0,0.929,0.146,1.61,0.437,2.043
			c0.291,0.434,0.721,0.65,1.291,0.65c1.115,0,1.684-0.857,1.709-2.573v-0.316c0-1.802-0.576-2.703-1.728-2.703
			c-1.046,0-1.613,0.777-1.7,2.332L188.667,54.352z"/>
		<path fill="#F04F24" d="M197.305,59.274v-7.876h-1.458v-2.173h1.458v-0.799c0-1.145,0.337-2.034,1.012-2.666
			c0.675-0.631,1.622-0.947,2.842-0.947c0.446,0,0.935,0.065,1.468,0.195l0.009,2.303c-0.192-0.056-0.449-0.083-0.771-0.083
			c-0.947,0-1.421,0.409-1.421,1.226v0.771h1.959v2.173h-1.959v7.876H197.305z"/>
		<path fill="#F04F24" d="M212.248,55.55l1.588-6.325h3.297l-3.278,10.049h-3.195l-3.278-10.049h3.307L212.248,55.55z"/>
		<path fill="#F04F24" d="M222.808,59.459c-1.542,0-2.79-0.459-3.743-1.379c-0.954-0.919-1.431-2.116-1.431-3.59v-0.26
			c0-1.028,0.19-1.935,0.571-2.722c0.381-0.786,0.937-1.395,1.667-1.825c0.731-0.431,1.598-0.646,2.601-0.646
			c1.412,0,2.526,0.438,3.344,1.314c0.817,0.876,1.226,2.098,1.226,3.664v1.217h-6.223c0.111,0.563,0.356,1.006,0.733,1.328
			c0.378,0.322,0.867,0.483,1.468,0.483c0.99,0,1.765-0.347,2.322-1.04l1.43,1.69c-0.39,0.539-0.943,0.968-1.658,1.287
			C224.401,59.3,223.631,59.459,222.808,59.459z M222.455,51.454c-0.917,0-1.461,0.607-1.634,1.82h3.158v-0.241
			c0.012-0.501-0.115-0.89-0.381-1.166C223.331,51.592,222.951,51.454,222.455,51.454z"/>
		<path fill="#F04F24" d="M234.381,52.058l-1.031-0.075c-0.984,0-1.616,0.31-1.895,0.929v6.362h-3.13V49.225h2.935l0.102,1.291
			c0.526-0.984,1.26-1.477,2.201-1.477c0.334,0,0.625,0.037,0.873,0.111L234.381,52.058z"/>
		<path fill="#F04F24" d="M244.838,54.333c0,1.647-0.34,2.913-1.021,3.798c-0.681,0.886-1.641,1.328-2.879,1.328
			c-1.021,0-1.846-0.405-2.471-1.216l-0.13,1.031h-2.805V45.008h3.13v5.024c0.582-0.663,1.334-0.994,2.257-0.994
			c1.251,0,2.217,0.449,2.897,1.347c0.682,0.898,1.021,2.161,1.021,3.789V54.333z M241.699,54.133c0-0.964-0.129-1.652-0.385-2.063
			c-0.258-0.411-0.652-0.617-1.186-0.617c-0.705,0-1.194,0.269-1.467,0.807v3.987c0.266,0.532,0.762,0.797,1.486,0.797
			c0.736,0,1.204-0.358,1.402-1.076C241.649,55.617,241.699,55.005,241.699,54.133z"/>
		<path fill="#F04F24" d="M251.154,54.036c0,1.455-0.214,2.836-0.641,4.143c-0.428,1.306-1.018,2.429-1.77,3.367
			s-1.565,1.574-2.438,1.908l-0.595-1.542c0.861-0.644,1.527-1.635,1.997-2.972c0.471-1.337,0.716-2.876,0.733-4.616v-0.567
			c0-1.863-0.236-3.479-0.71-4.848c-0.474-1.368-1.147-2.371-2.021-3.009l0.595-1.542c0.866,0.341,1.673,0.971,2.419,1.89
			s1.335,2.024,1.766,3.315c0.43,1.291,0.651,2.646,0.664,4.063V54.036z"/>
	</g>
</g>
<path fill="#10AFA1" d="M140.504,8.53H11.331v2.109v0v31.965C12.909,64.377,29,65.954,29,65.954h129.173v-1.894v-0.216V31.878
	C156.595,10.108,140.504,8.53,140.504,8.53z"/>
<g>
	<path fill="#FFFFFF" d="M43.8,40.009c0-0.772-0.273-1.375-0.82-1.806c-0.547-0.431-1.508-0.878-2.883-1.34
		c-1.375-0.461-2.499-0.908-3.372-1.339c-2.84-1.395-4.26-3.312-4.26-5.75c0-1.214,0.354-2.285,1.062-3.214
		c0.708-0.928,1.708-1.65,3.003-2.167c1.294-0.517,2.75-0.775,4.365-0.775c1.576,0,2.988,0.281,4.237,0.843
		c1.25,0.562,2.221,1.362,2.913,2.401s1.039,2.226,1.039,3.56h-5.269c0-0.893-0.273-1.585-0.82-2.077
		c-0.547-0.492-1.287-0.738-2.22-0.738c-0.943,0-1.688,0.208-2.235,0.625c-0.547,0.417-0.82,0.946-0.82,1.588
		c0,0.562,0.301,1.071,0.903,1.528s1.661,0.928,3.176,1.415c1.515,0.487,2.76,1.011,3.733,1.573
		c2.369,1.365,3.553,3.247,3.553,5.645c0,1.917-0.723,3.422-2.167,4.516c-1.445,1.094-3.427,1.641-5.946,1.641
		c-1.776,0-3.384-0.319-4.824-0.956s-2.524-1.51-3.251-2.619s-1.091-2.386-1.091-3.831h5.299c0,1.174,0.303,2.04,0.911,2.597
		c0.607,0.557,1.593,0.835,2.958,0.835c0.873,0,1.563-0.188,2.07-0.564S43.8,40.692,43.8,40.009z"/>
	<path fill="#FFFFFF" d="M61.262,44.074c-1.074,1.375-2.524,2.063-4.35,2.063c-1.787,0-3.139-0.52-4.057-1.558
		c-0.918-1.039-1.377-2.531-1.377-4.479V29.548h5.073V40.13c0,1.395,0.677,2.092,2.032,2.092c1.164,0,1.992-0.416,2.483-1.25V29.548
		h5.103v16.287h-4.757L61.262,44.074z"/>
	<path fill="#FFFFFF" d="M84.066,37.827c0,2.67-0.552,4.722-1.656,6.157s-2.659,2.153-4.667,2.153c-1.656,0-2.99-0.657-4.004-1.972
		l-0.211,1.671h-4.546V22.714h5.073v8.144c0.943-1.074,2.163-1.611,3.658-1.611c2.027,0,3.592,0.728,4.696,2.183
		c1.104,1.456,1.656,3.502,1.656,6.142V37.827z M78.979,37.503c0-1.563-0.208-2.677-0.625-3.344
		c-0.417-0.666-1.056-0.999-1.919-0.999c-1.144,0-1.937,0.436-2.378,1.307v6.462c0.432,0.862,1.234,1.292,2.409,1.292
		c1.194,0,1.952-0.581,2.273-1.743C78.898,39.908,78.979,38.916,78.979,37.503z"/>
	<path fill="#FFFFFF" d="M91.759,29.548v16.844c-0.01,1.927-0.563,3.412-1.656,4.456c-1.094,1.043-2.619,1.565-4.576,1.565
		c-0.843,0-1.641-0.085-2.394-0.256v-3.838c0.582,0.09,1.059,0.135,1.43,0.135c1.405,0,2.107-0.698,2.107-2.092V29.548H91.759z
		 M86.295,25.333c0-0.727,0.261-1.323,0.783-1.787c0.521-0.464,1.199-0.697,2.032-0.697c0.833,0,1.51,0.232,2.032,0.697
		c0.521,0.464,0.783,1.06,0.783,1.787s-0.261,1.323-0.783,1.787c-0.522,0.464-1.2,0.697-2.032,0.697
		c-0.833,0-1.511-0.232-2.032-0.697C86.556,26.656,86.295,26.06,86.295,25.333z"/>
	<path fill="#FFFFFF" d="M102.507,46.136c-2.499,0-4.521-0.745-6.066-2.235s-2.318-3.43-2.318-5.818v-0.421
		c0-1.666,0.309-3.136,0.925-4.41c0.617-1.274,1.518-2.26,2.702-2.958c1.184-0.697,2.589-1.046,4.215-1.046
		c2.288,0,4.094,0.71,5.419,2.13c1.325,1.42,1.987,3.4,1.987,5.938v1.972H99.286c0.181,0.913,0.577,1.631,1.189,2.152
		c0.612,0.522,1.405,0.783,2.378,0.783c1.605,0,2.86-0.562,3.763-1.686l2.318,2.74c-0.632,0.873-1.528,1.568-2.687,2.085
		C105.088,45.877,103.841,46.136,102.507,46.136z M101.935,33.161c-1.485,0-2.368,0.983-2.649,2.95h5.118v-0.392
		c0.02-0.813-0.186-1.442-0.617-1.889C103.354,33.384,102.737,33.161,101.935,33.161z"/>
	<path fill="#FFFFFF" d="M118.297,42.222c0.712,0,1.265-0.193,1.656-0.58c0.392-0.386,0.582-0.926,0.572-1.618h4.757
		c0,1.787-0.64,3.251-1.919,4.396s-2.928,1.716-4.945,1.716c-2.369,0-4.235-0.743-5.6-2.228c-1.365-1.485-2.047-3.542-2.047-6.172
		v-0.21c0-1.646,0.303-3.099,0.911-4.358c0.607-1.259,1.483-2.228,2.627-2.905s2.499-1.016,4.064-1.016
		c2.118,0,3.798,0.587,5.043,1.761c1.244,1.174,1.867,2.765,1.867,4.772h-4.757c0-0.843-0.206-1.49-0.617-1.942
		c-0.412-0.452-0.963-0.677-1.656-0.677c-1.315,0-2.083,0.838-2.303,2.514c-0.07,0.532-0.105,1.264-0.105,2.198
		c0,1.636,0.196,2.77,0.587,3.402C116.822,41.906,117.444,42.222,118.297,42.222z"/>
	<path fill="#FFFFFF" d="M133.334,25.499v4.049h2.68v3.522h-2.68v7.451c0,0.612,0.11,1.039,0.332,1.279
		c0.22,0.241,0.657,0.361,1.31,0.361c0.501,0,0.923-0.03,1.264-0.09V45.7c-0.913,0.291-1.866,0.437-2.86,0.437
		c-1.746,0-3.036-0.412-3.869-1.234s-1.25-2.072-1.25-3.749V33.07h-2.077v-3.522h2.077v-4.049H133.334z"/>
</g>
</svg>
